<svg width="236" height="76" viewBox="0 0 236 76" fill="none" xmlns="http://www.w3.org/2000/svg">
<path d="M6.33532 45.7462C6.27104 45.7091 6.2114 45.6609 6.16028 45.6008C4.80019 44.0296 4.58255 41.7636 5.6181 39.9632L12.9166 27.2734C13.1063 26.9438 13.5261 26.8308 13.8545 27.0213C14.1829 27.2117 14.2952 27.633 14.1063 27.9634L6.80779 40.6532C6.06501 41.9446 6.22147 43.5696 7.19738 44.6966C7.44601 44.9843 7.4158 45.4198 7.12923 45.6695C6.90229 45.8679 6.58163 45.8893 6.33532 45.7462ZM4.85441 38.9903L12.3372 25.9796C12.599 25.5243 12.9452 25.1379 13.3658 24.8312C13.5703 24.6818 13.616 24.3949 13.4673 24.1894C13.3185 23.984 13.032 23.9389 12.8275 24.0875C12.3024 24.47 11.8702 24.9521 11.5441 25.5196L4.06128 38.5303C3.93503 38.75 4.01016 39.0314 4.22858 39.1579C4.447 39.2843 4.72739 39.21 4.85441 38.9903ZM15.9853 44.7093L18.6892 40.0075C19.0052 39.4582 18.8178 38.7548 18.2702 38.4379C17.7226 38.1201 17.0224 38.309 16.7064 38.8583L14.0025 43.5601C13.4967 44.439 12.3728 44.7417 11.4976 44.2343C10.6216 43.7269 10.3203 42.5982 10.8261 41.7194L16.7784 31.3706C17.0944 30.8213 16.907 30.1178 16.3594 29.8009C15.8118 29.4832 15.1116 29.6721 14.7956 30.2214L8.84327 40.5702C7.70625 42.5469 8.3832 45.0831 10.3528 46.2244C12.3217 47.3656 14.849 46.6859 15.9853 44.7093ZM29.9153 30.3305C29.6287 30.5802 29.5985 31.0157 29.8472 31.3034C30.8231 32.4304 30.9795 34.0554 30.2368 35.3468L22.9383 48.0366C22.7485 48.3662 22.8608 48.7883 23.19 48.9787C23.5184 49.1692 23.9382 49.0562 24.128 48.7266L31.4264 36.0368C32.462 34.2356 32.2444 31.9704 30.8843 30.3992C30.8332 30.3399 30.7735 30.2917 30.7092 30.2538C30.4621 30.1107 30.1423 30.1329 29.9153 30.3305ZM32.1901 37.0097L24.7073 50.0204C24.4455 50.4757 24.0993 50.8621 23.6788 51.1688C23.4743 51.3182 23.4286 51.6051 23.5773 51.8106C23.726 52.016 24.0126 52.0611 24.2171 51.9125C24.7422 51.53 25.1744 51.0479 25.5005 50.4804L32.9833 37.4697C33.1095 37.25 33.0344 36.9686 32.816 36.8421C32.5968 36.7149 32.3172 36.79 32.1901 37.0097ZM21.0593 31.2907L18.3554 35.9925C18.0394 36.5418 18.2268 37.2452 18.7744 37.5621C19.322 37.8799 20.0222 37.691 20.3382 37.1417L23.0421 32.4399C23.5479 31.561 24.6717 31.2583 25.5469 31.7657C26.4229 32.2731 26.7242 33.4017 26.2185 34.2806L20.2661 44.6294C19.9501 45.1787 20.1376 45.8822 20.6852 46.1991C21.2328 46.5168 21.9329 46.3279 22.249 45.7786L28.2013 35.4298C29.3383 33.4531 28.6614 30.9169 26.6917 29.7756C24.7228 28.6344 22.1955 29.3141 21.0593 31.2907Z" fill="url(#paint0_linear_258_37510)"/>
<path d="M49.0749 46.3229C49.0115 46.3229 48.9482 46.3229 48.8861 46.3193C48.2611 46.2997 47.6504 46.1839 47.0673 45.9729C46.7172 45.8461 46.379 45.6876 46.0635 45.4998C45.1445 44.9596 44.3809 44.1804 43.8527 43.2439C43.6687 42.9184 43.5122 42.5733 43.3891 42.2172C43.1608 41.5612 43.0449 40.871 43.0449 40.1638V30.1196C43.0449 29.855 43.2552 29.6404 43.5146 29.6404H45.0155C45.2748 29.6404 45.4851 29.855 45.4851 30.1196V40.0857C45.4851 42.0819 47.0159 43.7719 48.9721 43.8317C51.0048 43.8927 52.6766 42.2245 52.6766 40.1638V30.1196C52.6766 29.855 52.8869 29.6404 53.1462 29.6404H54.6472C54.9065 29.6404 55.1168 29.855 55.1168 30.1196V40.1638C55.1168 40.8661 55.0009 41.5575 54.7726 42.2172C54.6496 42.5733 54.493 42.9184 54.309 43.2415C53.7796 44.178 53.016 44.9572 52.0994 45.4962C51.7828 45.6852 51.4446 45.8449 51.0932 45.9717C50.5113 46.1827 49.9006 46.2985 49.2792 46.318C49.2123 46.3205 49.1478 46.3217 49.0821 46.3217H49.0773L49.0749 46.3229Z" fill="#1E222B"/>
<path fill-rule="evenodd" clip-rule="evenodd" d="M92.0397 46.3173C88.8718 46.3173 86.2942 43.5541 86.2942 40.1581C86.2942 36.7621 88.8718 33.999 92.0397 33.999C94.7356 33.999 97.0384 35.9634 97.6395 38.7753C97.7363 39.2228 97.7853 39.6874 97.7853 40.1569V40.1996C97.7829 40.5264 97.5188 40.7885 97.1973 40.7885H88.8288C88.7069 40.7885 88.5921 40.8459 88.5193 40.9434C88.4452 41.041 88.4213 41.1678 88.4535 41.2861C88.9291 43.0152 90.3488 44.2236 92.0744 44.2236C93.016 44.2236 93.9254 43.8675 94.6329 43.22C94.7548 43.1103 94.8707 42.9895 94.9794 42.8627C95.0667 42.7603 95.1957 42.703 95.3284 42.703H96.7217C97.097 42.703 97.3216 43.1298 97.1137 43.4493C96.4337 44.4894 95.3738 45.3479 94.217 45.8563C93.5275 46.1612 92.795 46.3148 92.0397 46.3148V46.3173ZM92.0744 35.989C90.5484 35.989 89.1705 36.9657 88.5647 38.4778C88.5157 38.6009 88.5276 38.7412 88.5993 38.8521C88.6698 38.9631 88.7893 39.0302 88.9172 39.0302H95.2328C95.3606 39.0302 95.4801 38.9631 95.5506 38.8521C95.6211 38.7412 95.6343 38.5997 95.5853 38.4778C94.9782 36.9657 93.6004 35.989 92.0744 35.989Z" fill="#1E222B"/>
<path d="M64.9884 45.5833V39.2498C64.9884 37.795 63.8818 36.5549 62.4574 36.5C60.9601 36.4427 59.7232 37.6682 59.7232 39.1839V45.5845C59.7232 45.8491 59.5129 46.0637 59.2536 46.0637H57.7527C57.4934 46.0637 57.2831 45.8491 57.2831 45.5845V39.1839C57.2831 38.4425 57.4336 37.7255 57.7312 37.0524C58.5509 35.2026 60.3661 34.0076 62.3546 34.0076C64.3431 34.0076 66.1583 35.2026 66.9781 37.0524C67.2756 37.7255 67.4262 38.4425 67.4262 39.1839V45.5845C67.4262 45.8491 67.2159 46.0637 66.9566 46.0637H65.4556C65.1963 46.0637 64.986 45.8491 64.986 45.5845L64.9884 45.5833Z" fill="#1E222B"/>
<path d="M75.3277 41.7552C75.9766 44.8098 77.3831 46.3596 79.5102 46.3596L79.509 46.3584C82.6614 46.3584 83.5051 42.8466 83.6903 41.7576L85.0825 34.9059C85.1422 34.6083 84.9199 34.3291 84.6224 34.3291H83.1669C82.9422 34.3291 82.7486 34.4913 82.7056 34.7169C82.3949 36.3362 81.6409 40.3017 81.3648 41.9064C81.2083 42.821 80.8558 43.8696 79.509 43.8696C78.4239 43.8696 77.7559 43.2099 77.5253 41.9089C77.2504 40.3614 76.5753 36.3716 76.298 34.7278C76.2598 34.4974 76.0638 34.3303 75.8356 34.3303H74.3932C74.0956 34.3303 73.8734 34.6071 73.9331 34.9046C74.2916 36.6874 75.011 40.2639 75.3277 41.7552Z" fill="#1E222B"/>
<path d="M99.6262 45.5844C99.6262 45.849 99.8365 46.0636 100.096 46.0636V46.0661H101.597C101.856 46.0661 102.066 45.8515 102.066 45.5869V38.5339C102.066 38.5046 102.07 38.4754 102.076 38.4485C102.084 38.2473 102.121 38.0486 102.188 37.8559C102.387 37.2816 102.841 36.8182 103.402 36.617C103.59 36.5487 103.786 36.5097 103.987 36.5024C104.012 36.4963 104.038 36.4938 104.064 36.4938L104.816 36.4902C105.074 36.489 105.283 36.2743 105.283 36.011V34.4782C105.283 34.2136 105.073 33.999 104.814 33.999H103.992C103.511 34.0051 103.038 34.0892 102.586 34.2514C102.584 34.2526 102.581 34.2538 102.579 34.2538C101.329 34.705 100.319 35.7354 99.8771 37.0109C99.8765 37.0134 99.8759 37.016 99.8751 37.0185C99.8743 37.0209 99.8735 37.0232 99.8723 37.0255C99.7086 37.5035 99.6262 38.0059 99.6262 38.518V45.5844Z" fill="#1E222B"/>
<path d="M69.6116 37.0329V45.5809C69.6116 45.8455 69.8219 46.0601 70.0812 46.0601H71.5797C71.839 46.0601 72.0494 45.8455 72.0494 45.5809V37.0305C72.0494 36.911 71.937 36.8256 71.8247 36.8586C71.508 36.9525 71.1722 37.0025 70.8257 37.0025C70.4791 37.0025 70.1505 36.9525 69.8362 36.861C69.7239 36.8281 69.6116 36.9134 69.6116 37.0329Z" fill="#1E222B"/>
<path d="M69.6116 36.1933V34.8092C69.6116 34.5459 69.8219 34.3312 70.0812 34.3312H71.5797C71.839 34.3312 72.0494 34.5459 72.0494 34.8105V36.192C72.0494 36.4127 71.9024 36.6042 71.692 36.6578C71.4148 36.7286 71.1208 36.7664 70.8257 36.7664C70.5305 36.7664 70.2449 36.7286 69.9701 36.6603C69.7597 36.6066 69.6116 36.414 69.6116 36.1933Z" fill="#1E222B"/>
<defs>
<linearGradient id="paint0_linear_258_37510" x1="4" y1="38" x2="34.3259" y2="38" gradientUnits="userSpaceOnUse">
<stop stop-color="#5357ED"/>
<stop offset="1" stop-color="#40B9FF"/>
</linearGradient>
</defs>
</svg>
